<svg xmlns="http://www.w3.org/2000/svg" width="59.969" height="50.3" viewBox="0 0 59.969 50.3"><g transform="translate(-1040.85 -3128.85)"><g transform="translate(1037.034 3120.463)"><path d="M49.728,30.579A13.954,13.954,0,0,0,38.9,35.733l-4.275-1.426c-.048-.016-.1-.027-.146-.042C47.451,28.175,43.4,8.751,28.87,8.537c-14.963.551-18.214,19.421-5.75,25.769l-11.3,3.756A11.482,11.482,0,0,0,3.966,48.973v5.387a4.054,4.054,0,0,0,4.043,4.055H47.977a13.991,13.991,0,0,0,1.751.122c18.536-.764,18.548-27.189,0-27.958Zm-32.206-8.56A11.362,11.362,0,0,1,28.87,10.671c15.056.624,15.05,22.076,0,22.7A11.362,11.362,0,0,1,17.522,22.019ZM8.009,56.282A1.917,1.917,0,0,1,6.1,54.36V48.973a9.349,9.349,0,0,1,6.4-8.887l11.3-3.756a15.987,15.987,0,0,1,10.153,0l3.7,1.233c-3.829,6.1-1.527,15.111,4.5,18.718Zm41.719.122A11.859,11.859,0,0,1,37.883,44.558c.651-15.714,23.042-15.71,23.69,0A11.859,11.859,0,0,1,49.728,56.4Z" fill="#fff" stroke="#fff" stroke-width="0.3"/><path d="M57.426,40.915a1.067,1.067,0,0,0-.881-.466h-12.5l-1.3-4.359a1.066,1.066,0,0,0-1.022-.762H39.463A1.066,1.066,0,0,0,38.4,36.4c.055,1.385,1.613,1.026,2.535,1.067.031.061,1.28,4.326,1.305,4.382l1.988,6.665a1.066,1.066,0,0,0,1.022.762h8.684a1.068,1.068,0,0,0,.994-.678l2.614-6.688a1.069,1.069,0,0,0-.113-.99ZM53.2,47.138H46.041l-1.357-4.555h10.3Z" transform="translate(2.256 1.755)" fill="#fff" stroke="#fff" stroke-width="0.3"/><path d="M44.936,48.67A1.067,1.067,0,1,0,46,49.736a1.067,1.067,0,0,0-1.067-1.067Z" transform="translate(2.614 2.629)" fill="#fff" stroke="#fff" stroke-width="0.3"/><path d="M52.683,48.67a1.067,1.067,0,1,0,1.067,1.067,1.067,1.067,0,0,0-1.067-1.067Z" transform="translate(3.122 2.629)" fill="#fff" stroke="#fff" stroke-width="0.3"/></g></g></svg>