<svg xmlns="http://www.w3.org/2000/svg" width="50.02" height="50" viewBox="0 0 50.02 50"><g transform="translate(-1041 -3316)"><path d="M48.538,28.477l-7.2-3V23.323a8.026,8.026,0,0,0,3.873-5.376h.161a2.421,2.421,0,0,0,.066-4.841l.791-1.833a6.517,6.517,0,0,0-3.284-8.512L40.694,1.737a8.268,8.268,0,0,0-8.255.9l-1.255.947a5.024,5.024,0,0,0-3.511,6.492,8.368,8.368,0,0,0-3.68.09,6.492,6.492,0,0,0-3.636-7.4L18.1,1.737a8.268,8.268,0,0,0-8.255.9l-1.255.947A5.026,5.026,0,0,0,5.342,10.7l1.205,2.408a2.421,2.421,0,0,0,.1,4.841h.161a8.037,8.037,0,0,0,3.873,5.374v2.156l-7.2,3A4.023,4.023,0,0,0,1,32.2V42.957a.807.807,0,0,0,.807.807H7.454v6.454a.807.807,0,0,0,.807.807h35.5a.807.807,0,0,0,.807-.807V43.764h5.647a.807.807,0,0,0,.807-.807V32.2a4.023,4.023,0,0,0-2.482-3.723ZM28.731,12.08l2.252,1.027a4.9,4.9,0,0,1,2.47,6.405l-.242.553-.827-1.671a.807.807,0,0,0-1.21-.285l-1.291.968a6.454,6.454,0,0,1-7.745,0l-1.291-.968a.8.8,0,0,0-.669-.14.807.807,0,0,0-.537.424l-.891,1.789-.666-1.332a3.412,3.412,0,0,1,3.05-4.937,3.768,3.768,0,0,1,3.141,1.681l.253.381,1.342-.9-.253-.38a5.374,5.374,0,0,0-3.042-2.2,6.626,6.626,0,0,1,6.158-.422Zm5.347,11.515h.807a.807.807,0,1,1,0,1.614h-.807ZM23.59,32.9a8.061,8.061,0,0,0,4.841,0v1.651l-2.42,2.42-2.42-2.42Zm2.42-1.242a6.461,6.461,0,0,1-6.454-6.454V22.172l1.1-2.192.518.388a8.068,8.068,0,0,0,9.681,0l.518-.388,1.1,2.192v3.037a6.462,6.462,0,0,1-6.454,6.454Zm-8.068-6.454h-.807a.807.807,0,1,1,0-1.614h.807ZM7.454,41.376v.775H2.614V32.2A2.415,2.415,0,0,1,4.1,29.968l7.7-3.206a.807.807,0,0,0,.5-.747V22.84a.844.844,0,0,0-.467-.732A6.428,6.428,0,0,1,8.3,17.052a.807.807,0,0,0-.8-.718H6.647a.807.807,0,1,1,0-1.614h.807a.807.807,0,0,0,.807-.812L8.255,13.1a.807.807,0,0,0-.085-.355L6.785,9.976a3.411,3.411,0,0,1,2.33-4.857.827.827,0,0,0,.315-.144l1.388-1.049a6.63,6.63,0,0,1,6.616-.718l2.254,1.024a4.9,4.9,0,0,1,2.47,6.405l-.131.3a7.816,7.816,0,0,0-.882.569l-1.272.953h0a5.019,5.019,0,0,0-3.238,7.109l1.207,2.411h-.706a2.42,2.42,0,1,0,0,4.841H18.1a8.087,8.087,0,0,0,3.873,5.363v2.092L10.409,37.49a4.045,4.045,0,0,0-2.954,3.886Zm35.5,8.036H38.112V42.957H36.5v6.454H15.522V42.957H13.908v6.454H9.068V41.376a2.426,2.426,0,0,1,1.775-2.332l11.706-3.251,2.894,2.894a.807.807,0,0,0,1.141,0l2.894-2.894,11.7,3.251a2.426,2.426,0,0,1,1.775,2.332Zm6.454-7.261H44.566v-.775a4.045,4.045,0,0,0-2.954-3.886L30.044,34.277V32.185a8.087,8.087,0,0,0,3.873-5.363h.968a2.42,2.42,0,1,0,0-4.841h-.741l.791-1.832a6.517,6.517,0,0,0-3.284-8.512l-1.872-.853-.4-.807a3.411,3.411,0,0,1,2.329-4.858.827.827,0,0,0,.315-.144l1.388-1.049a6.63,6.63,0,0,1,6.616-.718l2.254,1.024a4.9,4.9,0,0,1,2.47,6.405l-.928,2.147a.807.807,0,0,0-.066.323l.006.807a.807.807,0,0,0,.807.807h.807a.807.807,0,0,1,0,1.614h-.851a.807.807,0,0,0-.8.718,6.425,6.425,0,0,1-3.55,5.066.807.807,0,0,0-.448.722v3.175a.807.807,0,0,0,.5.745l7.7,3.209A2.415,2.415,0,0,1,49.407,32.2Z" transform="translate(1040 3314.975)" fill="#fff"/></g></svg>