<svg xmlns="http://www.w3.org/2000/svg" width="50.3" height="50.3" viewBox="0 0 50.3 50.3"><g transform="translate(-1383.85 -3128.85)"><g transform="translate(1384 3129)"><path d="M7.5,320c-3.728,0-7.5,1.145-7.5,3.333v10c0,2.188,3.772,3.333,7.5,3.333s7.5-1.145,7.5-3.333v-10C15,321.145,11.228,320,7.5,320Zm0,1.667c3.789,0,5.833,1.183,5.833,1.667S11.289,325,7.5,325s-5.833-1.183-5.833-1.667S3.711,321.667,7.5,321.667ZM7.5,335c-3.789,0-5.833-1.183-5.833-1.667v-1.167A13.217,13.217,0,0,0,7.5,333.333a13.217,13.217,0,0,0,5.833-1.167v1.167C13.333,333.817,11.289,335,7.5,335Zm0-3.333c-3.789,0-5.833-1.183-5.833-1.667v-1.167A13.217,13.217,0,0,0,7.5,330a13.217,13.217,0,0,0,5.833-1.167V330C13.333,330.483,11.289,331.667,7.5,331.667Zm0-3.333c-3.789,0-5.833-1.183-5.833-1.667V325.5A13.216,13.216,0,0,0,7.5,326.667a13.216,13.216,0,0,0,5.833-1.167v1.167C13.333,327.15,11.289,328.333,7.5,328.333Zm0,0" transform="translate(0 -286.667)" fill="#fff" stroke="#fff" stroke-width="0.3"/><path d="M175.5,256c-3.728,0-7.5,1.145-7.5,3.333V276c0,2.188,3.772,3.333,7.5,3.333S183,278.188,183,276V259.333C183,257.145,179.228,256,175.5,256Zm0,1.667c3.789,0,5.833,1.183,5.833,1.667S179.289,261,175.5,261s-5.833-1.183-5.833-1.667S171.711,257.667,175.5,257.667Zm0,20c-3.789,0-5.833-1.183-5.833-1.667v-1.167a15.167,15.167,0,0,0,11.667,0V276C181.333,276.483,179.289,277.667,175.5,277.667Zm0-3.333c-3.789,0-5.833-1.183-5.833-1.667V271.5a15.168,15.168,0,0,0,11.667,0v1.167C181.333,273.15,179.289,274.333,175.5,274.333Zm0-3.333c-3.789,0-5.833-1.183-5.833-1.667v-1.167a15.168,15.168,0,0,0,11.667,0v1.167C181.333,269.817,179.289,271,175.5,271Zm0-3.333c-3.789,0-5.833-1.183-5.833-1.667v-1.167a15.167,15.167,0,0,0,11.667,0V266C181.333,266.483,179.289,267.667,175.5,267.667Zm0-3.333c-3.789,0-5.833-1.183-5.833-1.667V261.5a15.168,15.168,0,0,0,11.667,0v1.167C181.333,263.15,179.289,264.333,175.5,264.333Zm0,0" transform="translate(-150.5 -229.333)" fill="#fff" stroke="#fff" stroke-width="0.3"/><path d="M343.5,160c-3.728,0-7.5,1.145-7.5,3.333V190c0,2.188,3.772,3.333,7.5,3.333S351,192.188,351,190V163.333C351,161.145,347.228,160,343.5,160Zm0,1.667c3.789,0,5.833,1.183,5.833,1.667S347.289,165,343.5,165s-5.833-1.183-5.833-1.667S339.711,161.667,343.5,161.667Zm0,30c-3.789,0-5.833-1.183-5.833-1.667v-1.167a15.168,15.168,0,0,0,11.667,0V190C349.333,190.483,347.289,191.667,343.5,191.667Zm0-3.333c-3.789,0-5.833-1.183-5.833-1.667V185.5a15.168,15.168,0,0,0,11.667,0v1.167C349.333,187.15,347.289,188.333,343.5,188.333Zm0-3.333c-3.789,0-5.833-1.183-5.833-1.667v-1.167a15.168,15.168,0,0,0,11.667,0v1.167C349.333,183.817,347.289,185,343.5,185Zm0-3.333c-3.789,0-5.833-1.183-5.833-1.667v-1.167a15.168,15.168,0,0,0,11.667,0V180C349.333,180.483,347.289,181.667,343.5,181.667Zm0-3.333c-3.789,0-5.833-1.183-5.833-1.667V175.5a15.168,15.168,0,0,0,11.667,0v1.167C349.333,177.15,347.289,178.333,343.5,178.333Zm0-3.333c-3.789,0-5.833-1.183-5.833-1.667v-1.167a15.168,15.168,0,0,0,11.667,0v1.167C349.333,173.817,347.289,175,343.5,175Zm0-3.333c-3.789,0-5.833-1.183-5.833-1.667v-1.167a15.168,15.168,0,0,0,11.667,0V170C349.333,170.483,347.289,171.667,343.5,171.667Zm0-3.333c-3.789,0-5.833-1.183-5.833-1.667V165.5a15.168,15.168,0,0,0,11.667,0v1.167C349.333,167.15,347.289,168.333,343.5,168.333Zm0,0" transform="translate(-301 -143.333)" fill="#fff" stroke="#fff" stroke-width="0.3"/><path d="M43.276,0V1.667H49.6L33.764,17.5H16.3L2.726,29.373l1.1,1.255,13.1-11.461H34.454L50.776,2.845V9.167h1.667V0Zm0,0" transform="translate(-2.442)" fill="#fff" stroke="#fff" stroke-width="0.3"/></g></g></svg>