<svg xmlns="http://www.w3.org/2000/svg" width="50.899" height="68" viewBox="0 0 50.899 68"><g transform="translate(-1384 -3316)"><g transform="translate(1384 3316)"><path d="M9.289,57.071h9.868A1.07,1.07,0,0,0,20.228,56V54.433h4.061l3.28,2.941a7.8,7.8,0,0,0,5.211,1.993h5.993v2.14a6.595,6.595,0,1,0,13.189,0v-2.14H52.2a3.677,3.677,0,0,0,3.795-3.532V54.022a3.335,3.335,0,0,0-.529-1.8A3.519,3.519,0,0,0,57.5,49.087V47.28a3.406,3.406,0,0,0-1.077-2.468A3.406,3.406,0,0,0,57.5,42.345V40.537A3.518,3.518,0,0,0,55.463,37.4a3.336,3.336,0,0,0,.529-1.8V33.795A3.677,3.677,0,0,0,52.2,30.263h-.239V24.325A13.74,13.74,0,0,0,52.021.235a1.07,1.07,0,0,0-1.588.935V11.629l-5.067,2.723L40.3,11.629V1.17A1.07,1.07,0,0,0,38.71.235a13.738,13.738,0,0,0,.062,24.09v.535h-5.6a7.812,7.812,0,0,0-6.376,3.3l-2.654,3.757H20.228V30.351a1.07,1.07,0,0,0-1.07-1.07H9.289a1.07,1.07,0,0,0-1.07,1.07V56a1.07,1.07,0,0,0,1.07,1.07Zm8.8-2.14H10.359V50.157h7.728ZM49.829,61.5a4.454,4.454,0,1,1-8.908,0V59.36h2a2.792,2.792,0,1,0,5.217,0h1.693Zm-3.838-.681a.655.655,0,1,1,0-.927.655.655,0,0,1,0,.927Zm-5.079-32.9V24.743H49.82v5.515H40.912ZM33.751,12.268a11.626,11.626,0,0,1,4.407-9.1v9.1a1.07,1.07,0,0,0,.564.943l6.137,3.3a1.07,1.07,0,0,0,1.013,0l6.139-3.3a1.07,1.07,0,0,0,.563-.943v-9.1A11.585,11.585,0,0,1,50.609,22.6H40.121a11.519,11.519,0,0,1-6.371-10.335ZM24.7,34.059a1.07,1.07,0,0,0,.874-.453L28.546,29.4A5.672,5.672,0,0,1,33.175,27h5.6v3.254H34.327V32.4H52.2a1.544,1.544,0,0,1,1.655,1.391V35.6a1.544,1.544,0,0,1-1.655,1.4H45.365v2.14h8.348a1.543,1.543,0,0,1,1.653,1.391v1.808a1.543,1.543,0,0,1-1.653,1.4H45.365v2.14h8.348a1.543,1.543,0,0,1,1.653,1.4v1.806a1.543,1.543,0,0,1-1.653,1.4H45.365v2.14H52.2a1.544,1.544,0,0,1,1.655,1.391v1.808A1.543,1.543,0,0,1,52.2,57.2H32.783A5.659,5.659,0,0,1,29,55.757l-3.587-3.211a1.07,1.07,0,0,0-.714-.273H20.228V34.059Zm-6.612-2.638v16.6H10.359v-16.6Z" transform="translate(-8.219 -0.101)" fill="#fff"/><path d="M13.911,47.968A1.231,1.231,0,1,0,15.14,49.2a1.231,1.231,0,0,0-1.23-1.231Z" transform="translate(-7.906 3.259)" fill="#fff"/></g></g></svg>