<svg xmlns="http://www.w3.org/2000/svg" xmlns:xlink="http://www.w3.org/1999/xlink" width="110" height="110" viewBox="0 0 110 110"><defs><filter id="a" x="0" y="0" width="110" height="110" filterUnits="userSpaceOnUse"><feOffset input="SourceAlpha"/><feGaussianBlur stdDeviation="3" result="b"/><feFlood flood-opacity="0.059"/><feComposite operator="in" in2="b"/><feComposite in="SourceGraphic"/></filter></defs><g transform="translate(9 9)"><g transform="matrix(1, 0, 0, 1, -9, -9)" filter="url(#a)"><circle cx="46" cy="46" r="46" transform="translate(9 9)" fill="#fff"/></g><g transform="translate(21 31)"><path d="M44.386,46.207H9.608a7.608,7.608,0,0,1-.692-15.186A10.2,10.2,0,0,1,22.4,22.058a12.336,12.336,0,0,1,22.823,8.978,7.608,7.608,0,0,1-.836,15.171ZM19.088,22.94a8.776,8.776,0,0,0-8.766,8.766.714.714,0,0,1-.714.714,6.18,6.18,0,1,0,0,12.36H44.386a6.18,6.18,0,1,0,0-12.36h-.117a.714.714,0,0,1-.674-.948,11.1,11.1,0,0,0,.633-3.642A10.914,10.914,0,0,0,23.4,23.257a.714.714,0,0,1-.925.357,8.708,8.708,0,0,0-3.387-.675Z" transform="translate(-1.998 -15.456)" fill="#0066a9" stroke="#0066a9" stroke-width="0.7"/><path d="M27.85,42.483l1.052.266a3.541,3.541,0,0,1-1.19,1.977,3.28,3.28,0,0,1-2.1.681,3.776,3.776,0,0,1-2.091-.523,3.268,3.268,0,0,1-1.226-1.515,5.408,5.408,0,0,1-.42-2.131,4.685,4.685,0,0,1,.475-2.167,3.251,3.251,0,0,1,1.353-1.4,3.945,3.945,0,0,1,1.928-.48,3.26,3.26,0,0,1,2.006.608A3.154,3.154,0,0,1,28.77,39.5l-1.036.246a2.46,2.46,0,0,0-.8-1.263,2.138,2.138,0,0,0-1.323-.4,2.57,2.57,0,0,0-1.532.439,2.32,2.32,0,0,0-.865,1.18,4.749,4.749,0,0,0-.25,1.527,4.851,4.851,0,0,0,.3,1.771,2.2,2.2,0,0,0,.919,1.13,2.578,2.578,0,0,0,1.353.374,2.263,2.263,0,0,0,1.5-.51A2.609,2.609,0,0,0,27.85,42.483Z" transform="translate(-7.293 -20.694)" fill="#0066a9" stroke="#0066a9" stroke-width="0.7"/><path d="M25.562,45.437A3.869,3.869,0,0,1,23.43,44.9a3.359,3.359,0,0,1-1.254-1.551,5.506,5.506,0,0,1-.426-2.161,4.785,4.785,0,0,1,.483-2.2,3.348,3.348,0,0,1,1.381-1.437,4.039,4.039,0,0,1,1.968-.492,3.349,3.349,0,0,1,2.053.623,3.242,3.242,0,0,1,1.157,1.751l.023.077-1.185.279-.022-.068a2.392,2.392,0,0,0-.774-1.223,2.073,2.073,0,0,0-1.277-.381,2.509,2.509,0,0,0-1.488.424,2.258,2.258,0,0,0-.836,1.142,4.688,4.688,0,0,0-.246,1.5,4.807,4.807,0,0,0,.29,1.742,2.135,2.135,0,0,0,.887,1.092,2.509,2.509,0,0,0,1.311.363,2.2,2.2,0,0,0,1.448-.492,2.545,2.545,0,0,0,.8-1.47l.017-.077,1.2.3-.019.074a3.629,3.629,0,0,1-1.217,2.019,3.37,3.37,0,0,1-2.149.7Zm.016-8.221a3.888,3.888,0,0,0-1.891.47,3.192,3.192,0,0,0-1.319,1.372A4.628,4.628,0,0,0,21.9,41.19a5.351,5.351,0,0,0,.415,2.1,3.2,3.2,0,0,0,1.2,1.48,3.718,3.718,0,0,0,2.049.511,3.222,3.222,0,0,0,2.054-.664,3.444,3.444,0,0,0,1.143-1.861l-.9-.228a2.651,2.651,0,0,1-.838,1.476,2.349,2.349,0,0,1-1.546.527,2.664,2.664,0,0,1-1.39-.385,2.284,2.284,0,0,1-.952-1.165,4.94,4.94,0,0,1-.3-1.8,4.843,4.843,0,0,1,.253-1.551,2.4,2.4,0,0,1,.893-1.217,2.655,2.655,0,0,1,1.576-.453,2.225,2.225,0,0,1,1.37.411,2.494,2.494,0,0,1,.809,1.232l.887-.209a3.066,3.066,0,0,0-1.082-1.59,3.2,3.2,0,0,0-1.96-.59Z" transform="translate(-7.249 -20.637)" fill="#0066a9" stroke="#0066a9" stroke-width="0.7"/><path d="M34.884,41.4a4.32,4.32,0,0,1,1.063-3.1,3.614,3.614,0,0,1,2.744-1.12,3.806,3.806,0,0,1,1.985.526,3.436,3.436,0,0,1,1.349,1.468,4.764,4.764,0,0,1,.464,2.134A4.685,4.685,0,0,1,42,43.469a3.332,3.332,0,0,1-1.383,1.445,3.951,3.951,0,0,1-1.931.492,3.759,3.759,0,0,1-2.006-.542,3.49,3.49,0,0,1-1.34-1.48,4.49,4.49,0,0,1-.458-1.986Zm1.084.016a3.185,3.185,0,0,0,.772,2.264,2.7,2.7,0,0,0,3.894-.008A3.377,3.377,0,0,0,41.4,41.3a4.073,4.073,0,0,0-.328-1.694,2.522,2.522,0,0,0-.959-1.124,2.6,2.6,0,0,0-1.418-.4,2.69,2.69,0,0,0-1.923.768,3.429,3.429,0,0,0-.805,2.563Z" transform="translate(-10.694 -20.692)" fill="#0066a9" stroke="#0066a9" stroke-width="0.7"/><path d="M38.638,45.435a3.851,3.851,0,0,1-2.047-.554,3.582,3.582,0,0,1-1.368-1.512,4.575,4.575,0,0,1-.463-2.019A4.414,4.414,0,0,1,35.843,38.2a3.7,3.7,0,0,1,2.8-1.144,3.9,3.9,0,0,1,2.024.537,3.52,3.52,0,0,1,1.377,1.5,4.859,4.859,0,0,1,.472,2.168,4.787,4.787,0,0,1-.5,2.2,3.426,3.426,0,0,1-1.415,1.476,4.044,4.044,0,0,1-1.967.5Zm.006-8.227a3.556,3.556,0,0,0-2.688,1.1,4.266,4.266,0,0,0-1.041,3.046,4.428,4.428,0,0,0,.448,1.951,3.433,3.433,0,0,0,1.311,1.448,3.7,3.7,0,0,0,1.968.531,3.893,3.893,0,0,0,1.893-.481,3.275,3.275,0,0,0,1.353-1.415,4.63,4.63,0,0,0,.479-2.129,4.705,4.705,0,0,0-.456-2.1,3.375,3.375,0,0,0-1.317-1.435A3.752,3.752,0,0,0,38.644,37.209Zm-.011,7.326a2.629,2.629,0,0,1-2-.851,3.275,3.275,0,0,1-.793-2.317,3.514,3.514,0,0,1,.83-2.618,2.774,2.774,0,0,1,1.975-.788,2.686,2.686,0,0,1,1.459.41,2.608,2.608,0,0,1,.989,1.156,4.177,4.177,0,0,1,.335,1.726,3.463,3.463,0,0,1-.787,2.422,2.623,2.623,0,0,1-2.011.86Zm.016-6.42a2.627,2.627,0,0,0-1.87.746A3.369,3.369,0,0,0,36,41.367a3.122,3.122,0,0,0,.753,2.211,2.619,2.619,0,0,0,3.781-.007,3.321,3.321,0,0,0,.747-2.318,4.014,4.014,0,0,0-.321-1.661,2.46,2.46,0,0,0-.931-1.089,2.538,2.538,0,0,0-1.376-.389Z" transform="translate(-10.644 -20.636)" fill="#0066a9" stroke="#0066a9" stroke-width="0.7"/><path d="M53.459,47.646v.528H50.5a.972.972,0,0,1,.062-.382,2.019,2.019,0,0,1,.362-.6,5.669,5.669,0,0,1,.719-.677,6.1,6.1,0,0,0,.984-.948,1.135,1.135,0,0,0,.256-.661.734.734,0,0,0-.234-.554.843.843,0,0,0-.609-.224.861.861,0,0,0-.635.238.9.9,0,0,0-.241.659l-.565-.058a1.391,1.391,0,0,1,.437-.963,1.49,1.49,0,0,1,1.017-.332,1.419,1.419,0,0,1,1.02.357,1.173,1.173,0,0,1,.38.886,1.343,1.343,0,0,1-.11.528,2.05,2.05,0,0,1-.365.547,8.889,8.889,0,0,1-.848.788q-.492.415-.635.563a1.807,1.807,0,0,0-.232.3Z" transform="translate(-15.504 -22.948)" fill="#0066a9" stroke="#0066a9" stroke-width="0.7"/><path d="M53.518,48.233h-3.26l-.007-.148a1.129,1.129,0,0,1,.074-.442A2.164,2.164,0,0,1,50.712,47a5.809,5.809,0,0,1,.738-.7,5.972,5.972,0,0,0,.959-.923.992.992,0,0,0,.227-.57.579.579,0,0,0-.185-.44.688.688,0,0,0-.5-.185.7.7,0,0,0-.526.193.746.746,0,0,0-.2.554V45.1l-.884-.088.014-.151a1.541,1.541,0,0,1,.489-1.065,1.642,1.642,0,0,1,1.118-.369,1.573,1.573,0,0,1,1.126.4,1.327,1.327,0,0,1,.423,1,1.5,1.5,0,0,1-.123.588,2.218,2.218,0,0,1-.392.589,9.059,9.059,0,0,1-.861.8c-.323.271-.533.456-.623.554l-.036.038h2.041Zm-2.952-.308h2.645v-.221H50.9l.141-.234a1.933,1.933,0,0,1,.252-.324c.1-.105.312-.293.649-.576a8.856,8.856,0,0,0,.831-.772,1.91,1.91,0,0,0,.338-.5,1.2,1.2,0,0,0,.1-.468,1.015,1.015,0,0,0-.328-.774,1.26,1.26,0,0,0-.913-.315,1.348,1.348,0,0,0-.915.293,1.152,1.152,0,0,0-.366.711l.246.026a.992.992,0,0,1,.276-.6,1.009,1.009,0,0,1,.744-.283.994.994,0,0,1,.716.268.884.884,0,0,1,.28.662,1.284,1.284,0,0,1-.287.752,6.128,6.128,0,0,1-1.012.976,5.542,5.542,0,0,0-.7.659,1.872,1.872,0,0,0-.335.55.853.853,0,0,0-.044.173Z" transform="translate(-15.395 -22.836)" fill="#0066a9" stroke="#0066a9" stroke-width="0.7"/></g></g></svg>