<svg xmlns="http://www.w3.org/2000/svg" xmlns:xlink="http://www.w3.org/1999/xlink" width="110" height="110" viewBox="0 0 110 110"><defs><filter id="a" x="0" y="0" width="110" height="110" filterUnits="userSpaceOnUse"><feOffset input="SourceAlpha"/><feGaussianBlur stdDeviation="3" result="b"/><feFlood flood-opacity="0.059"/><feComposite operator="in" in2="b"/><feComposite in="SourceGraphic"/></filter></defs><g transform="translate(-731 -909)"><g transform="matrix(1, 0, 0, 1, 731, 909)" filter="url(#a)"><circle cx="46" cy="46" r="46" transform="translate(9 9)" fill="#fff"/></g><g transform="translate(761 939.519)"><path d="M40.049,42.491H1.042A1.042,1.042,0,0,1,0,41.45V19.123a1.042,1.042,0,0,1,1.042-1.042H40.049a1.042,1.042,0,0,1,1.042,1.042V41.45A1.042,1.042,0,0,1,40.049,42.491ZM2.083,40.408H39.007V20.164H2.083Z" transform="translate(0 0.483)" fill="#0066a9" stroke="#fff" stroke-width="0.5"/><path d="M33.19,39.209H7.62a1.042,1.042,0,0,1-1.042-1.042,2.094,2.094,0,0,0-2.092-2.091,1.042,1.042,0,0,1-1.042-1.042V25.286a1.042,1.042,0,0,1,1.042-1.042,2.1,2.1,0,0,0,2.092-2.092A1.042,1.042,0,0,1,7.62,21.111H33.19a1.042,1.042,0,0,1,1.042,1.042,2.094,2.094,0,0,0,2.083,2.092,1.042,1.042,0,0,1,1.042,1.042v9.749a1.042,1.042,0,0,1-1.042,1.042,2.093,2.093,0,0,0-2.091,2.091,1.042,1.042,0,0,1-1.034,1.042ZM8.535,37.126h23.75a4.193,4.193,0,0,1,2.989-3.005V26.2a4.191,4.191,0,0,1-3-3H8.529a4.189,4.189,0,0,1-3,3V34.12a4.191,4.191,0,0,1,3,3.005Z" transform="translate(0.144 0.61)" fill="#0066a9" stroke="#fff" stroke-width="0.5"/><path d="M19.954,35.769a5.742,5.742,0,1,1,5.741-5.741A5.742,5.742,0,0,1,19.954,35.769Zm0-9.4a3.658,3.658,0,1,0,3.657,3.659A3.658,3.658,0,0,0,19.954,26.37Z" transform="translate(0.592 0.742)" fill="#0066a9" stroke="#fff" stroke-width="0.5"/><path d="M42.247,36.769a1.042,1.042,0,0,1-.1-2.078l1.2-.126L41.23,14.432,7.7,17.953a1.042,1.042,0,1,1-.218-2.073l34.567-3.629a1.042,1.042,0,0,1,1.146.927l2.332,22.205a1.042,1.042,0,0,1-.927,1.146l-2.239.235c-.037,0-.074,0-.11,0Z" transform="translate(0.273 0.24)" fill="#0066a9" stroke="#fff" stroke-width="0.5"/><path d="M46.856,30.822a1.042,1.042,0,0,1-.2-2.065l.678-.13L43.523,8.746,10.877,15.008a1.043,1.043,0,0,1-.393-2.049L44.155,6.5a1.042,1.042,0,0,1,1.219.826L49.58,29.255a1.042,1.042,0,0,1-.827,1.219l-1.7.326A1.067,1.067,0,0,1,46.856,30.822Z" transform="translate(0.402 0)" fill="#0066a9" stroke="#fff" stroke-width="0.5"/></g></g></svg>